<svg width="95" height="22" fill="none" xmlns="http://www.w3.org/2000/svg"><path d="M55.117 19.49c0 .174.055.273.16.273a.466.466 0 0 0 .232-.087L85.112.746a2.875 2.875 0 0 1 1.708-.51h6.508c.225-.01.45.026.66.105.21.08.4.2.557.356.157.155.279.341.357.545.078.204.11.421.094.638v12.233c0 1.478-.332 2.333-1.67 3.122l-7.89 4.67a.545.545 0 0 1-.266.095c-.097 0-.186-.07-.186-.336V7.384c0-.154-.055-.274-.16-.274a.462.462 0 0 0-.227.083l-21.64 13.844a2.88 2.88 0 0 1-1.661.503h-14.35c-.224.01-.45-.025-.66-.104-.209-.08-.4-.201-.557-.356a1.533 1.533 0 0 1-.357-.546 1.491 1.491 0 0 1-.095-.638V2.263c0-.129-.059-.25-.16-.25a.46.46 0 0 0-.231.088l-14.278 8.443c-.143.083-.181.154-.181.22 0 .067.025.117.126.217L40.75 21.02c.135.132.227.236.227.34 0 .121-.147.175-.324.175h-9.224c-.299.032-.6.005-.888-.08a2.216 2.216 0 0 1-.782-.414l-6.184-6.09a.256.256 0 0 0-.177-.095.375.375 0 0 0-.19.066l-10.344 6.119a2.934 2.934 0 0 1-1.67.49h-9.52a1.641 1.641 0 0 1-.66-.102c-.21-.079-.4-.2-.559-.355a1.527 1.527 0 0 1-.357-.544 1.484 1.484 0 0 1-.094-.64V7.886c0-1.478.337-2.329 1.67-3.118L9.61.067A.443.443 0 0 1 9.829 0c.123 0 .186.125.186.394V16.45c0 .17.047.25.16.25a.5.5 0 0 0 .24-.096L37.237.723A2.933 2.933 0 0 1 39.006.23h14.436c.225-.011.45.023.66.102.211.079.402.2.56.355.158.155.28.34.36.545.078.204.11.422.095.639v17.617Z" fill="#fff"/></svg>