<svg width="96" height="23" fill="none" xmlns="http://www.w3.org/2000/svg"><path d="M55.692 20.375c0 .182.056.286.163.286a.461.461 0 0 0 .234-.091L85.989.781a2.834 2.834 0 0 1 1.724-.533h6.574a1.612 1.612 0 0 1 1.686 1.718v12.789a3.223 3.223 0 0 1-1.686 3.264l-7.97 4.881a.538.538 0 0 1-.269.1c-.1 0-.187-.074-.187-.352V7.72c0-.16-.056-.286-.162-.286a.457.457 0 0 0-.23.087L63.612 21.993a2.84 2.84 0 0 1-1.677.525H47.44a1.61 1.61 0 0 1-1.688-1.718V2.365c0-.135-.059-.261-.162-.261a.456.456 0 0 0-.234.091L30.94 11.021c-.145.087-.183.161-.183.23s.025.122.128.226l10.3 10.5c.135.139.228.247.228.355 0 .126-.149.182-.327.182h-9.322A2.218 2.218 0 0 1 30.077 22l-6.247-6.366a.261.261 0 0 0-.178-.1.372.372 0 0 0-.191.069L13.013 22a2.892 2.892 0 0 1-1.686.512H1.715A1.603 1.603 0 0 1 .026 20.8V8.241a3.225 3.225 0 0 1 1.686-3.259L9.73.069A.436.436 0 0 1 9.95 0c.124 0 .187.13.187.412V17.2c0 .178.047.261.162.261a.5.5 0 0 0 .239-.1L37.634.755a2.889 2.889 0 0 1 1.789-.516h14.582a1.611 1.611 0 0 1 1.687 1.718v18.418Z" fill="#05141F"/></svg>