<svg width="222" height="16" fill="none" xmlns="http://www.w3.org/2000/svg"><path d="M40.609 14.174c0 .127.04.199.118.199a.346.346 0 0 0 .171-.063L62.7.543a2.136 2.136 0 0 1 1.258-.37h4.793c.166-.008.331.017.486.075.154.058.294.146.41.259.117.113.207.248.264.396.057.149.081.307.07.465v8.896c.061.453-.024.913-.243 1.319-.22.405-.564.737-.987.952l-5.812 3.395a.403.403 0 0 1-.195.07c-.073 0-.137-.052-.137-.245V5.37c0-.11-.04-.199-.118-.199a.343.343 0 0 0-.167.061l-15.94 10.067a2.14 2.14 0 0 1-1.222.366H34.592a1.224 1.224 0 0 1-.486-.075 1.18 1.18 0 0 1-.412-.259 1.112 1.112 0 0 1-.263-.396 1.068 1.068 0 0 1-.07-.465V1.645c0-.094-.042-.181-.117-.181a.342.342 0 0 0-.171.063L22.56 7.667c-.105.06-.133.112-.133.16s.018.085.093.157l7.51 7.304c.1.097.167.172.167.247 0 .088-.109.127-.238.127H23.16c-.22.024-.442.004-.654-.057a1.64 1.64 0 0 1-.576-.3l-4.555-4.43a.19.19 0 0 0-.13-.069.279.279 0 0 0-.139.048l-7.619 4.45a2.18 2.18 0 0 1-1.229.357H1.251a1.22 1.22 0 0 1-.487-.073 1.176 1.176 0 0 1-.412-.257 1.108 1.108 0 0 1-.264-.397 1.065 1.065 0 0 1-.069-.464V5.733c-.06-.452.024-.911.244-1.316s.563-.737.985-.951L7.095.048A.329.329 0 0 1 7.255 0c.091 0 .137.09.137.287v11.678c0 .124.035.182.119.182a.375.375 0 0 0 .173-.07L27.441.525a2.18 2.18 0 0 1 1.305-.359h10.633c.166-.008.331.018.486.076.155.057.295.145.411.258.116.113.206.248.263.397.058.148.081.307.07.464v12.813ZM82 7.72c0-1.467.307-2.787.92-3.96A6.747 6.747 0 0 1 85.56 1c1.147-.667 2.5-1 4.06-1 .88 0 1.74.14 2.58.42.84.28 1.533.633 2.08 1.06v3.06a6.354 6.354 0 0 0-2.02-1.72c-.76-.427-1.607-.64-2.54-.64-.893 0-1.707.233-2.44.7-.72.453-1.293 1.1-1.72 1.94-.427.84-.64 1.807-.64 2.9v.36c0 1.08.213 2.04.64 2.88.427.84 1.007 1.493 1.74 1.96.733.467 1.54.7 2.42.7.933 0 1.78-.207 2.54-.62a6.597 6.597 0 0 0 2.02-1.74v3.06c-.547.427-1.24.78-2.08 1.06-.84.28-1.7.42-2.58.42-1.56 0-2.913-.333-4.06-1a6.748 6.748 0 0 1-2.64-2.76c-.613-1.173-.92-2.493-.92-3.96v-.36Zm14.177 2.14c0-1.04.234-1.987.7-2.84a5.232 5.232 0 0 1 1.96-2c.84-.493 1.78-.74 2.82-.74 1.04 0 1.974.247 2.8.74a5.046 5.046 0 0 1 1.96 2c.48.853.72 1.8.72 2.84v.34c0 1.067-.24 2.027-.72 2.88a5.223 5.223 0 0 1-1.96 2c-.826.48-1.76.72-2.8.72-1.04 0-1.98-.24-2.82-.72a5.38 5.38 0 0 1-1.96-2.02c-.466-.853-.7-1.807-.7-2.86v-.34Zm2.68.34c0 1.04.247 1.907.74 2.6.494.68 1.18 1.02 2.06 1.02.88 0 1.567-.34 2.06-1.02.494-.693.74-1.56.74-2.6v-.34c0-1.027-.246-1.88-.74-2.56-.493-.693-1.18-1.04-2.06-1.04-.88 0-1.566.347-2.06 1.04-.493.68-.74 1.533-.74 2.56v.34Zm10.579 5.3V4.58h2.42l.16 1.58c.387-.533.88-.98 1.48-1.34.6-.36 1.267-.54 2-.54 1.213 0 2.153.353 2.82 1.06.68.707 1.02 1.713 1.02 3.02v7.14h-2.58V8.36c0-1.387-.56-2.08-1.68-2.08-.653 0-1.273.253-1.86.76a3.916 3.916 0 0 0-1.2 1.8v6.66h-2.58Zm12.695 0V4.58h2.42l.16 1.58c.387-.533.88-.98 1.48-1.34.6-.36 1.267-.54 2-.54 1.214 0 2.154.353 2.82 1.06.68.707 1.02 1.713 1.02 3.02v7.14h-2.58V8.36c0-1.387-.56-2.08-1.68-2.08-.653 0-1.273.253-1.86.76a3.916 3.916 0 0 0-1.2 1.8v6.66h-2.58Zm11.896-5.68c0-1.053.213-2 .64-2.84.44-.853 1.046-1.513 1.82-1.98.786-.48 1.686-.72 2.7-.72 1.586 0 2.813.507 3.68 1.52.88 1 1.32 2.38 1.32 4.14v1h-7.62c.093.92.406 1.633.94 2.14.533.493 1.253.74 2.16.74a5.14 5.14 0 0 0 1.98-.38c.613-.253 1.213-.68 1.8-1.28v2.46c-.48.373-1.06.66-1.74.86-.667.213-1.38.32-2.14.32-1.174 0-2.18-.233-3.02-.7a4.714 4.714 0 0 1-1.88-1.98c-.427-.84-.64-1.807-.64-2.9v-.4Zm7.6-.84c0-.867-.227-1.54-.68-2.02-.44-.493-1.034-.74-1.78-.74-.694 0-1.287.253-1.78.76-.48.507-.747 1.173-.8 2h5.04Zm4.16.86c0-1 .24-1.927.72-2.78a5.214 5.214 0 0 1 2.04-2.02c.88-.507 1.893-.76 3.04-.76.626 0 1.213.093 1.76.28.546.173 1.013.4 1.4.68v2.64a3.384 3.384 0 0 0-1.34-1.16 3.548 3.548 0 0 0-1.64-.4c-.587 0-1.134.147-1.64.44a3.342 3.342 0 0 0-1.2 1.24c-.294.533-.44 1.147-.44 1.84v.4c0 .653.153 1.253.46 1.8.306.533.713.953 1.22 1.26.506.293 1.04.44 1.6.44 1.133 0 2.126-.5 2.98-1.5v2.56c-.374.293-.834.533-1.38.72-.547.187-1.167.28-1.86.28-1.107 0-2.1-.247-2.98-.74a5.436 5.436 0 0 1-2.02-2.02 5.576 5.576 0 0 1-.72-2.78v-.42Zm12.914-3.28h-2.36V4.58h2.36V1.26h2.58v3.32h2.42v1.98h-2.42v8.94h-2.58V6.56Zm12.215 4.46a6.087 6.087 0 0 0 1.96 1.86c.826.48 1.673.72 2.54.72.84 0 1.486-.2 1.94-.6.466-.413.7-.913.7-1.5 0-.427-.16-.807-.48-1.14-.307-.333-.847-.707-1.62-1.12l-2.22-1.18c-.947-.507-1.654-1.053-2.12-1.64-.454-.6-.68-1.387-.68-2.36 0-.707.18-1.367.54-1.98.36-.627.913-1.127 1.66-1.5.746-.387 1.66-.58 2.74-.58 1.573 0 3.033.507 4.38 1.52v3.02c-.627-.8-1.314-1.393-2.06-1.78-.747-.4-1.52-.6-2.32-.6-.64 0-1.147.173-1.52.52-.374.333-.56.74-.56 1.22 0 .387.12.727.36 1.02.24.293.686.607 1.34.94l2.36 1.22c1.04.547 1.806 1.16 2.3 1.84.506.667.76 1.507.76 2.52 0 .88-.227 1.647-.68 2.3-.454.653-1.1 1.16-1.94 1.52-.827.36-1.787.54-2.88.54-.974 0-1.867-.173-2.68-.52-.814-.333-1.42-.707-1.82-1.12v-3.14Zm13.567-4.46h-2.36V4.58h2.36V1.26h2.58v3.32h2.42v1.98h-2.42v8.94h-2.58V6.56Zm5.991 3.3c0-1.04.234-1.987.7-2.84a5.236 5.236 0 0 1 1.96-2c.84-.493 1.78-.74 2.82-.74 1.04 0 1.974.247 2.8.74a5.046 5.046 0 0 1 1.96 2c.48.853.72 1.8.72 2.84v.34c0 1.067-.24 2.027-.72 2.88a5.223 5.223 0 0 1-1.96 2c-.826.48-1.76.72-2.8.72-1.04 0-1.98-.24-2.82-.72a5.385 5.385 0 0 1-1.96-2.02c-.466-.853-.7-1.807-.7-2.86v-.34Zm2.68.34c0 1.04.247 1.907.74 2.6.494.68 1.18 1.02 2.06 1.02.88 0 1.567-.34 2.06-1.02.494-.693.74-1.56.74-2.6v-.34c0-1.027-.246-1.88-.74-2.56-.493-.693-1.18-1.04-2.06-1.04-.88 0-1.566.347-2.06 1.04-.493.68-.74 1.533-.74 2.56v.34Zm10.579 5.3V4.58h2.42l.12 1.8a2.908 2.908 0 0 1 1.22-1.52c.6-.387 1.286-.58 2.06-.58.346 0 .633.033.86.1v2.3a2.795 2.795 0 0 0-.96-.16c-.734 0-1.394.22-1.98.66-.587.427-.974 1-1.16 1.72v6.6h-2.58Zm7.676-5.68c0-1.053.214-2 .64-2.84.44-.853 1.047-1.513 1.82-1.98.787-.48 1.687-.72 2.7-.72 1.587 0 2.814.507 3.68 1.52.88 1 1.32 2.38 1.32 4.14v1h-7.62c.094.92.407 1.633.94 2.14.534.493 1.254.74 2.16.74.707 0 1.367-.127 1.98-.38.614-.253 1.214-.68 1.8-1.28v2.46c-.48.373-1.06.66-1.74.86a6.98 6.98 0 0 1-2.14.32c-1.173 0-2.18-.233-3.02-.7a4.726 4.726 0 0 1-1.88-1.98c-.426-.84-.64-1.807-.64-2.9v-.4Zm7.6-.84c0-.867-.226-1.54-.68-2.02-.44-.493-1.033-.74-1.78-.74-.693 0-1.286.253-1.78.76-.48.507-.746 1.173-.8 2h5.04Z" fill="#05141F"/></svg>