<svg width="30" height="30" fill="none" xmlns="http://www.w3.org/2000/svg"><path d="M19.59 3h-.009c-1.064 0-1.927.845-1.927 1.888v17.295c0 1.042.863 1.887 1.927 1.887h.01c1.063 0 1.926-.845 1.926-1.887V4.888C21.517 3.845 20.654 3 19.59 3Z" stroke="#000" stroke-width="1.5" stroke-miterlimit="10"/><path d="M11.406 8.31v10.448" stroke="#000" stroke-width="1.5" stroke-linejoin="round"/><path d="M3.689 10.902h.896v5.268h-.896C2.2 16.17 1 14.993 1 13.536c0-1.457 1.201-2.634 2.689-2.634ZM6.343 18.76h3.271v6.11c0 .887-.735 1.607-1.64 1.607-.905 0-1.64-.72-1.64-1.607v-6.11h.009ZM25.23 9.173l2.985-2.915M25.23 17.898l2.985 2.924M25.23 13.535h4.159" stroke="#000" stroke-width="1.5" stroke-miterlimit="10"/><path d="M17.653 13.481v-.044l-.098-8.244c-.242 1.475-2.178 2.3-3.881 2.74a15.593 15.593 0 0 1-3.88.465H6.135c-.851 0-1.55.676-1.55 1.519v7.155c0 .834.69 1.519 1.55 1.519h3.666c1.309 0 2.617.14 3.88.465 1.695.439 3.64 1.255 3.882 2.74l.098-8.245v-.044l-.009-.026Z" stroke="#000" stroke-width="1.5" stroke-miterlimit="10"/></svg>