<svg width="45" height="45" fill="none" xmlns="http://www.w3.org/2000/svg"><g clip-path="url(#a)" stroke="#000" stroke-width="2"><path d="m40.135 36.111-2.81-6.054a14.565 14.565 0 0 0 1.539-9.987c-.694-3.412-2.582-6.438-5.3-8.497-2.72-2.059-6.078-3.006-9.43-2.66-3.353.347-6.463 1.962-8.735 4.537-2.271 2.575-3.544 5.927-3.572 9.413-.029 3.486 1.188 6.86 3.417 9.475 2.229 2.614 5.313 4.284 8.66 4.69 3.346.405 6.719-.483 9.47-2.495l6.76 1.578Z" stroke-linecap="square" stroke-linejoin="round"/><path d="M20.146 35.669a10.273 10.273 0 0 1-5.763 1.442 10.328 10.328 0 0 1-5.606-2l-5.226 1.223 2.185-4.7A11.218 11.218 0 0 1 4.308 26.4a11.243 11.243 0 0 1 1.189-5.3 10.814 10.814 0 0 1 3.51-4.05 10.336 10.336 0 0 1 4.962-1.797" stroke-miterlimit="10"/><path d="M20.291 18.79h10.787M20.291 23.32h10.787M20.291 27.53h5.492" stroke-linecap="square" stroke-linejoin="round"/></g><defs><clipPath id="a"><path fill="#fff" transform="translate(2 8)" d="M0 0h39v30H0z"/></clipPath></defs></svg>