<svg width="24" height="24" fill="none" xmlns="http://www.w3.org/2000/svg"><path d="M20 17h1v-2h-1v2ZM8 16l-.949.316.228.684H8v-1ZM4 4l.949-.316L4.72 3H4v1ZM2 3H1v2h1V3Zm5.5 9a1 1 0 1 0 0 2v-2ZM20 13v1h.754l.207-.725L20 13Zm2-7 .962.275L23.326 5H22v1ZM11 5h-1v2h1V5Zm8 15v2a2 2 0 0 0 2-2h-2Zm0 0h-2a2 2 0 0 0 2 2v-2Zm0 0v-2a2 2 0 0 0-2 2h2Zm0 0h2a2 2 0 0 0-2-2v2ZM9 20v2a2 2 0 0 0 2-2H9Zm0 0H7a2 2 0 0 0 2 2v-2Zm0 0v-2a2 2 0 0 0-2 2h2Zm0 0h2a2 2 0 0 0-2-2v2Zm11-5H8v2h12v-2Zm-11.051.684-4-12-1.898.632 4 12 1.898-.632ZM4 3H2v2h2V3Zm3.5 11H20v-2H7.5v2Zm13.462-.725 2-7-1.924-.55-2 7 1.924.55ZM22 5H11v2h11V5Z" fill="#fff"/></svg>