<svg width="27" height="25" fill="none" xmlns="http://www.w3.org/2000/svg"><path d="M13.28 22.594a8.862 8.862 0 1 0 0-17.725 8.862 8.862 0 0 0 0 17.725Z" stroke="#fff" stroke-width="1.5" stroke-miterlimit="10"/><path d="M13.28 8.799v4.933h4.933M19.602 20.332l3.667 3.667M3.292 23.999l3.666-3.667M2.116 2.616a3.806 3.806 0 0 0 0 5.385l5.385-5.385a3.806 3.806 0 0 0-5.385 0ZM24.38 2.616a3.806 3.806 0 0 0-5.385 0l5.384 5.385a3.806 3.806 0 0 0 0-5.385Z" stroke="#fff" stroke-width="1.5" stroke-miterlimit="10"/></svg>