<svg width="30" height="30" fill="none" xmlns="http://www.w3.org/2000/svg"><g clip-path="url(#a)" stroke="#05141F"><path d="m15.02 26.25 11.11-12.06c2.16-2.77 1.72-6.82-.98-9.04-2.7-2.22-6.63-1.77-8.78 1l-1.35 1.96-1.39-1.96c-2.16-2.76-6.09-3.21-8.78-.99-2.7 2.22-3.14 6.26-.98 9.03l11.15 12.06Z" fill="#05141F" stroke-miterlimit="10"/><path d="m15.02 26.25 11.11-12.06c2.16-2.77 1.72-6.82-.98-9.04-2.7-2.22-6.63-1.77-8.78 1l-1.35 1.96-1.39-1.96c-2.16-2.76-6.09-3.21-8.78-.99-2.7 2.22-3.14 6.26-.98 9.03l11.15 12.06Z" stroke-width="2"/></g><defs><clipPath id="a"><path fill="#fff" transform="translate(1.5 2.75)" d="M0 0h27v24.97H0z"/></clipPath></defs></svg>