<svg width="45" height="45" fill="none" xmlns="http://www.w3.org/2000/svg"><g clip-path="url(#a)" stroke="#000" stroke-width="2"><path d="m4.71 36.986 3.119-6.459A15.016 15.016 0 0 1 6.12 19.875 15.076 15.076 0 0 1 12 10.812a15.219 15.219 0 0 1 20.152 2.002 15.04 15.04 0 0 1 3.964 10.04 15.038 15.038 0 0 1-3.792 10.107 15.22 15.22 0 0 1-20.115 2.342l-7.5 1.683Z" stroke-miterlimit="10"/><path d="M17.477 19.927a3.145 3.145 0 0 1 .93-2.353 3.176 3.176 0 0 1 2.368-.919c.133-.012.267-.012.4 0 .56.032 1.099.22 1.556.542a2.955 2.955 0 0 1 .505 4.394c-1.035 1.201-2.318 1.892-2.318 4.53M20.955 29.317v.142" stroke-linecap="square" stroke-linejoin="round"/></g><defs><clipPath id="a"><path fill="#fff" transform="translate(3 7)" d="M0 0h34v32H0z"/></clipPath></defs></svg>