<svg preserveAspectRatio="none" width="100%" height="100%" overflow="visible" style="display: block;" viewBox="0 0 75 75" fill="none" xmlns="http://www.w3.org/2000/svg">
<g id="Icon">
<path id="Vector" d="M46.1891 53.4669H27.0703V55.3419H46.1891V53.4669Z" fill="var(--fill-0, black)"/>
<path id="Vector_2" d="M14.9125 55.3431H12.4625C9.93125 55.3431 7.875 53.2868 7.875 50.7556V46.1931C7.875 44.1618 9.2375 42.3493 11.1937 41.7931L18.8625 39.5868C19.35 39.4431 19.7875 39.1743 20.1187 38.8056L27.0312 31.1993C27.7 30.4556 28.9313 29.6993 29.4688 29.6993H41.9938V31.5743H29.6438C29.4125 31.6868 28.8375 31.9993 28.425 32.4618L21.5125 40.0618C20.9562 40.6806 20.2188 41.1368 19.3938 41.3868L11.7187 43.5931C10.5625 43.9243 9.75625 44.9931 9.75625 46.1931V50.7556C9.75625 52.2493 10.975 53.4681 12.4688 53.4681H14.9188V55.3431H14.9125Z" fill="var(--fill-0, black)"/>
<path id="Vector_3" d="M20.9875 61.1196C17.1188 61.1196 13.9688 57.9696 13.9688 54.1009C13.9688 50.2321 17.1188 47.0821 20.9875 47.0821C24.8563 47.0821 28.0063 50.2321 28.0063 54.1009C28.0063 57.9696 24.8563 61.1196 20.9875 61.1196ZM20.9875 48.9571C18.15 48.9571 15.8438 51.2634 15.8438 54.1009C15.8438 56.9384 18.15 59.2446 20.9875 59.2446C23.825 59.2446 26.1313 56.9384 26.1313 54.1009C26.1313 51.2634 23.825 48.9571 20.9875 48.9571Z" fill="var(--fill-0, black)"/>
<path id="Vector_4" d="M52.2803 61.1206C51.9865 61.1206 51.6865 61.1019 51.3865 61.0644C48.199 60.6706 45.6365 58.0706 45.2928 54.8769C45.049 52.6269 45.8553 50.4644 47.5115 48.9394C49.1678 47.4144 51.399 46.7894 53.6428 47.2144C56.3928 47.7456 58.6053 49.9394 59.149 52.6831C59.2678 53.2706 59.3115 53.8581 59.2803 54.4644C59.1803 56.3956 58.274 58.2206 56.7865 59.4706C55.5053 60.5456 53.9303 61.1206 52.274 61.1206H52.2803ZM52.2678 48.9581C50.974 48.9581 49.7428 49.4269 48.7803 50.3144C47.5678 51.4331 46.974 53.0206 47.1553 54.6706C47.4115 57.0081 49.2865 58.9144 51.6178 59.2019C53.0678 59.3769 54.4803 58.9644 55.5865 58.0331C56.6803 57.1144 57.3428 55.7769 57.4178 54.3581C57.4365 53.9081 57.4053 53.4831 57.3178 53.0456C56.9178 51.0394 55.3053 49.4394 53.299 49.0519C52.9553 48.9894 52.6115 48.9519 52.274 48.9519L52.2678 48.9581Z" fill="var(--fill-0, black)"/>
<path id="Vector_5" d="M62.525 55.3361H58.3437V53.4611H62.525C64.0188 53.4611 65.2375 52.2423 65.2375 50.7486V46.9986C65.2375 45.8861 64.5688 44.8986 63.5375 44.4861L58.1375 42.3298C57.325 42.0111 56.6188 41.4548 56.1 40.7298L54.6875 38.6798L56.2313 37.6173L57.6375 39.6611C57.9313 40.0736 58.3438 40.3986 58.825 40.5923L64.2312 42.7548C65.9812 43.4548 67.1125 45.1298 67.1125 47.0111V50.7611C67.1125 53.2923 65.0563 55.3486 62.525 55.3486V55.3361Z" fill="var(--fill-0, black)"/>
<path id="Vector_6" d="M53.5344 39.7172C45.9406 39.7172 39.7656 33.5422 39.7656 25.9484C39.7656 18.3547 45.9406 12.1797 53.5344 12.1797C61.1281 12.1797 67.3031 18.3547 67.3031 25.9484C67.3031 33.5422 61.1281 39.7172 53.5344 39.7172ZM53.5344 14.0609C46.9781 14.0609 41.6406 19.3984 41.6406 25.9547C41.6406 32.5109 46.9781 37.8484 53.5344 37.8484C60.0906 37.8484 65.4281 32.5109 65.4281 25.9547C65.4281 19.3984 60.0906 14.0609 53.5344 14.0609Z" fill="var(--fill-0, black)"/>
<path id="Vector_7" d="M52.0044 31.7942C51.7357 31.7942 51.4857 31.6817 51.3107 31.4817L47.0669 26.763C46.7232 26.3755 46.7544 25.788 47.1357 25.438C47.5232 25.0942 48.1107 25.1255 48.4607 25.5067L52.0107 29.4505L58.6169 22.113C58.9607 21.7255 59.5544 21.6942 59.9419 22.0442C60.3294 22.388 60.3607 22.9817 60.0107 23.3692L52.7107 31.4817C52.5357 31.6817 52.2794 31.7942 52.0169 31.7942H52.0044Z" fill="var(--fill-0, black)"/>
</g>
</svg>
