<svg width="160" height="56" fill="none" xmlns="http://www.w3.org/2000/svg"><path d="M22.262 1.76A7.5 7.5 0 0 1 26.422.5H156a3.5 3.5 0 0 1 3.5 3.5v31.718a7.499 7.499 0 0 1-3.34 6.24L137.738 54.24a7.501 7.501 0 0 1-4.16 1.26H4A3.5 3.5 0 0 1 .5 52V20.282a7.5 7.5 0 0 1 3.34-6.24L22.262 1.76Z" stroke="#fff"/><path d="M22.262 1.76A7.5 7.5 0 0 1 26.422.5H156a3.5 3.5 0 0 1 3.5 3.5v31.718a7.499 7.499 0 0 1-3.34 6.24L137.738 54.24a7.501 7.501 0 0 1-4.16 1.26H4A3.5 3.5 0 0 1 .5 52V20.282a7.5 7.5 0 0 1 3.34-6.24L22.262 1.76Z" stroke="#9BA1A5"/></svg>