<svg width="45" height="45" fill="none" xmlns="http://www.w3.org/2000/svg"><g clip-path="url(#a)" stroke="#000" stroke-width="2"><path d="m40.137 36.112-2.81-6.055a14.564 14.564 0 0 0 1.539-9.987c-.694-3.411-2.582-6.437-5.3-8.496-2.72-2.06-6.078-3.007-9.43-2.66-3.353.346-6.463 1.962-8.735 4.537-2.272 2.574-3.544 5.927-3.572 9.413-.029 3.486 1.188 6.86 3.417 9.474 2.229 2.615 5.313 4.285 8.66 4.69a13.32 13.32 0 0 0 9.47-2.494l6.76 1.578Z" stroke-linecap="square" stroke-linejoin="round"/><path d="M20.146 35.667a10.274 10.274 0 0 1-5.763 1.442 10.328 10.328 0 0 1-5.606-2l-5.226 1.223 2.185-4.699a11.218 11.218 0 0 1-1.428-5.236 11.243 11.243 0 0 1 1.189-5.3 10.814 10.814 0 0 1 3.51-4.05 10.336 10.336 0 0 1 4.962-1.797" stroke-miterlimit="10"/><path d="M20.293 18.79H31.08M20.293 23.32H31.08M20.293 27.531h5.492" stroke-linecap="square" stroke-linejoin="round"/></g><defs><clipPath id="a"><path fill="#fff" transform="translate(2 8)" d="M0 0h39v30H0z"/></clipPath></defs></svg>