<svg width="60" height="60" fill="none" xmlns="http://www.w3.org/2000/svg"><path d="M29.913 45.066c8.236 0 14.912-6.73 14.912-15.033C44.825 21.73 38.15 15 29.913 15S15 21.73 15 30.033c0 8.302 6.677 15.033 14.913 15.033Z" stroke="#000" stroke-width="2" stroke-linejoin="round"/><path d="m34.699 10.206-1.122-3.957A1.706 1.706 0 0 0 31.941 5h-4.36a1.684 1.684 0 0 0-1.618 1.167l-1.339 4.02-5.055 2.562-3.572-1.996a1.688 1.688 0 0 0-2.035.291l-3.084 3.109a1.713 1.713 0 0 0-.316 1.987l1.88 3.793-2.296 5.579L6.23 26.67A1.727 1.727 0 0 0 5 28.329l.027 4.394c0 .739.48 1.395 1.176 1.623l3.997 1.313 2.586 5.078-1.944 3.619a1.726 1.726 0 0 0 .308 2.05l3.11 3.082c.525.52 1.32.648 1.972.31l3.744-1.933.579-.127 5.788 2.735 1.202 3.929a1.71 1.71 0 0 0 1.664 1.212l4.36-.09a1.707 1.707 0 0 0 1.591-1.213l1.248-4.048 5.001-2.68 3.617 1.914a1.694 1.694 0 0 0 2.026-.337l3.012-3.172a1.74 1.74 0 0 0 .28-1.997l-1.962-3.747 2.17-5.625 3.889-1.249a1.714 1.714 0 0 0 1.184-1.686L55.5 27.29a1.717 1.717 0 0 0-1.212-1.596l-4.024-1.221-2.695-5.014 1.863-3.656a1.719 1.719 0 0 0-.353-2.042l-3.174-3.008a1.7 1.7 0 0 0-1.98-.265l-3.7 2.015-5.525-2.288v-.01Z" stroke="#000" stroke-width="2" stroke-miterlimit="10" stroke-linecap="round"/><path d="m26.674 44 .127-6.09a4.125 4.125 0 0 0-.841-2.575c-3.952-5.264-.94-8.87.487-10.142.269-.243.679-.053.707.318l.347 4.204c.042.477.402.84.848.848l1.647.03h.014l1.647-.076c.445-.022.806-.393.841-.87l.297-4.212c.028-.371.431-.568.7-.333 1.442 1.234 4.496 4.764.6 10.127a4.24 4.24 0 0 0-.812 2.598l.205 6.12" stroke="#000" stroke-width="2" stroke-linecap="round" stroke-linejoin="round"/></svg>