<svg width="45" height="45" fill="none" xmlns="http://www.w3.org/2000/svg"><g clip-path="url(#a)" stroke="#000" stroke-width="2"><path d="m4.71 36.985 3.119-6.46A15.016 15.016 0 0 1 6.12 19.874 15.076 15.076 0 0 1 12 10.811a15.218 15.218 0 0 1 20.152 2.001 15.04 15.04 0 0 1 3.964 10.041 15.038 15.038 0 0 1-3.792 10.106 15.22 15.22 0 0 1-20.115 2.342l-7.5 1.684Z" stroke-miterlimit="10"/><path d="M17.475 19.925a3.143 3.143 0 0 1 .93-2.352 3.175 3.175 0 0 1 2.368-.92 2.2 2.2 0 0 1 .4 0c.56.032 1.099.22 1.557.543a2.954 2.954 0 0 1 .505 4.394c-1.036 1.2-2.32 1.891-2.32 4.53M20.957 29.316v.142" stroke-linecap="square" stroke-linejoin="round"/></g><defs><clipPath id="a"><path fill="#fff" transform="translate(3 7)" d="M0 0h34v32H0z"/></clipPath></defs></svg>