<svg width="40" height="43" fill="none" xmlns="http://www.w3.org/2000/svg"><path d="M20.58 42.457c-3.16 0-6.25-.948-8.89-2.734L3 41.69l3.62-7.566a16.016 16.016 0 0 1-1.6-10.927c.81-3.864 3-7.264 6.17-9.595 3.17-2.34 7.07-3.4 10.98-3.006 3.91.393 7.52 2.21 10.17 5.125a15.968 15.968 0 0 1 4.16 10.634 16 16 0 0 1-3.98 10.704 15.857 15.857 0 0 1-10.08 5.297c-.62.07-1.24.111-1.86.111v-.01ZM12 38.1l.27.191a14.371 14.371 0 0 0 9.99 2.553 14.355 14.355 0 0 0 9.13-4.792 14.468 14.468 0 0 0 3.6-9.686 14.451 14.451 0 0 0-3.77-9.625 14.386 14.386 0 0 0-9.21-4.64c-3.54-.354-7.07.615-9.95 2.723a14.44 14.44 0 0 0-5.59 8.687 14.49 14.49 0 0 0 1.62 10.21l.2.343-2.62 5.468 6.31-1.432H12Z" fill="#000"/><path d="M26.188 21.715h-12.29v1.513h12.29v-1.513ZM26.188 26.285h-12.29V27.8h12.29v-1.514ZM20.978 30.531h-6.99v1.514h6.99V30.53Z" fill="#000"/></svg>