<svg width="70" height="70" fill="none" xmlns="http://www.w3.org/2000/svg"><g clip-path="url(#a)"><mask id="b" style="mask-type:luminance" maskUnits="userSpaceOnUse" x="6" y="13" width="58" height="44"><path d="M63.78 13H6v43.29h57.78V13Z" fill="#fff"/></mask><g mask="url(#b)" fill="#000"><path d="M56.07 56.29H8.93C7.31 56.29 6 54.98 6 53.36V24.43c0-1.62 1.31-2.93 2.93-2.93h33.72v2H8.93c-.52 0-.93.41-.93.93v28.93c0 .52.41.93.93.93h47.14c.52 0 .93-.41.93-.93V32.84h2v20.52c0 1.62-1.31 2.93-2.93 2.93Z"/><path d="M52.531 35.5c-6.2 0-11.25-5.05-11.25-11.25S46.331 13 52.531 13s11.25 5.05 11.25 11.25-5.05 11.25-11.25 11.25Zm0-20.5c-5.1 0-9.25 4.15-9.25 9.25s4.15 9.25 9.25 9.25 9.25-4.15 9.25-9.25-4.15-9.25-9.25-9.25Z"/><path d="M32.49 43.25c-.74 0-1.48-.24-2.1-.72L7.41 24.65l1.23-1.58 22.99 17.88c.51.4 1.22.4 1.73 0l12.23-9.6 1.24 1.57-12.23 9.6c-.62.48-1.36.73-2.1.73h-.01Z"/><path d="M26.673 38.047 7.406 53.035l1.228 1.579 19.267-14.988-1.228-1.579ZM38.35 38.11l-1.245 1.566 20.017 15.927 1.245-1.565-20.016-15.927ZM52.5 26c-.55 0-1-.45-1-1v-6c0-.55.45-1 1-1s1 .45 1 1v6c0 .55-.45 1-1 1ZM52.5 30c-.55 0-1-.45-1-1v-1c0-.55.45-1 1-1s1 .45 1 1v1c0 .55-.45 1-1 1Z"/></g></g><defs><clipPath id="a"><path fill="#fff" transform="translate(6 13)" d="M0 0h57.78v43.29H0z"/></clipPath></defs></svg>