<svg width="70" height="70" fill="none" xmlns="http://www.w3.org/2000/svg"><g clip-path="url(#a)"><mask id="b" style="mask-type:luminance" maskUnits="userSpaceOnUse" x="3" y="12" width="63" height="47"><path d="M66 12H3v47h63V12Z" fill="#fff"/></mask><g mask="url(#b)"><path d="M43.73 50.73H23.41v2h20.32v-2ZM61.098 52.731h-4.44v-2h4.44c1.59 0 2.88-1.32 2.88-2.94v-4.05c0-1.21-.71-2.28-1.81-2.73l-5.74-2.33c-.88-.35-1.63-.95-2.16-1.73l-2.12-3.02 1.64-1.15 2.12 3.03c.32.46.76.81 1.27 1.02l5.74 2.33c1.86.76 3.06 2.55 3.06 4.58v4.05c0 2.73-2.19 4.94-4.88 4.94ZM10.5 52.733H7.9c-2.69 0-4.88-2.22-4.88-4.94v-4.94c0-2.19 1.45-4.14 3.52-4.75l8.15-2.39c.51-.15.97-.45 1.34-.85l7.34-8.2c.71-.8 2.02-1.62 2.59-1.62h10.69v2h-10.5c-.25.12-.85.46-1.29.95l-7.35 8.21c-.62.68-1.4 1.17-2.26 1.43l-8.15 2.39c-1.23.36-2.08 1.52-2.08 2.83v4.94c0 1.62 1.29 2.94 2.88 2.94h2.6v2Z" fill="#000"/><path d="M16.948 58.972c-4.11 0-7.46-3.39-7.46-7.57s3.35-7.57 7.46-7.57c4.11 0 7.46 3.39 7.46 7.57s-3.35 7.57-7.46 7.57Zm0-13.13c-3.01 0-5.46 2.5-5.46 5.57 0 3.07 2.45 5.57 5.46 5.57s5.46-2.5 5.46-5.57c0-3.07-2.45-5.57-5.46-5.57ZM50.698 45.373v-.031h-.5c-3.295 0-5.96 2.733-5.96 6.07 0 3.34 2.718 6.07 5.96 6.07 3.237 0 5.786-2.529 5.96-5.733v-.327c0-3.166-2.399-5.789-5.46-6.049Zm-.5 13.099c-3.757 0-6.96-3.23-6.96-7.07 0-3.843 3.136-7.07 6.96-7.07 3.828 0 6.96 3.16 6.96 7.07V51.769c-.193 3.764-3.256 6.703-6.96 6.703Z" fill="#000"/><path d="M50.698 45.373v-.031h-.5c-3.295 0-5.96 2.733-5.96 6.07 0 3.34 2.718 6.07 5.96 6.07 3.237 0 5.786-2.529 5.96-5.733v-.327c0-3.166-2.399-5.789-5.46-6.049Zm-.5 13.099c-3.757 0-6.96-3.23-6.96-7.07 0-3.843 3.136-7.07 6.96-7.07 3.828 0 6.96 3.16 6.96 7.07V51.769c-.193 3.764-3.256 6.703-6.96 6.703Z" stroke="#000"/><path d="M50.698 45.373v-.031h-.5c-3.295 0-5.96 2.733-5.96 6.07 0 3.34 2.718 6.07 5.96 6.07 3.237 0 5.786-2.529 5.96-5.733v-.327c0-3.166-2.399-5.789-5.46-6.049Zm-.5 13.099c-3.757 0-6.96-3.23-6.96-7.07 0-3.843 3.136-7.07 6.96-7.07 3.828 0 6.96 3.16 6.96 7.07V51.769c-.193 3.764-3.256 6.703-6.96 6.703Z" stroke="#000" stroke-opacity=".2"/><path d="M47.47 35.201c-6.29 0-11.42-5.2-11.42-11.58s5.12-11.59 11.42-11.59 11.42 5.2 11.42 11.58-5.12 11.58-11.42 11.58v.01Zm0-21.17c-5.19 0-9.42 4.3-9.42 9.58s4.22 9.58 9.42 9.58 9.42-4.3 9.42-9.58-4.22-9.58-9.42-9.58Z" fill="#000"/><path d="M47.45 25.391c-.55 0-1-.45-1-1v-6.2c0-.55.45-1 1-1s1 .45 1 1v6.2c0 .55-.45 1-1 1ZM47.45 29.522c-.55 0-1-.45-1-1v-1.03c0-.55.45-1 1-1s1 .45 1 1v1.03c0 .55-.45 1-1 1Z" fill="#000"/></g></g><defs><clipPath id="a"><path fill="#fff" transform="translate(3 12)" d="M0 0h63v47H0z"/></clipPath></defs></svg>