<svg width="40" height="40" fill="none" xmlns="http://www.w3.org/2000/svg"><g clip-path="url(#a)"><mask id="b" style="mask-type:luminance" maskUnits="userSpaceOnUse" x="4" y="3" width="33" height="33"><path d="M37 3H4v33h33V3Z" fill="#fff"/></mask><g mask="url(#b)"><path d="M26.97 35.318c-6.96 0-14.13-7.97-14.45-8.33-11.29-12.32-6.13-19.16-5.9-19.44l2.86-2.87c1.3-1.3 3.56-1.3 4.85 0l3.39 3.39c.65.65 1 1.51 1 2.43 0 .92-.36 1.78-1 2.43l-3.21 3.21a.26.26 0 0 0-.01.35l8.48 9.53c.06.07.13.08.17.08.03 0 .11 0 .18-.07l3.13-3.14a3.437 3.437 0 0 1 4.85-.02l3.4 3.38a3.437 3.437 0 0 1 .02 4.85l-1.24 1.25c-1.69 1.7-3.37 2.62-5.3 2.89-.4.06-.81.08-1.22.08ZM7.74 8.538s-4.46 6.15 5.9 17.45c.08.1 7.83 8.69 14.34 7.76 1.61-.23 2.99-.99 4.45-2.47l1.24-1.25c.75-.76.74-1.98-.01-2.73l-3.4-3.38c-.76-.75-1.98-.75-2.73.01l-3.13 3.14c-.34.34-.82.51-1.28.51-.48-.01-.93-.23-1.25-.58l-8.48-9.53a1.75 1.75 0 0 1 .07-2.4l3.21-3.21c.75-.75.75-1.98 0-2.73l-3.39-3.39c-.75-.75-1.98-.75-2.73 0l-2.8 2.8h-.01Z" fill="#000"/></g></g><defs><clipPath id="a"><path fill="#fff" transform="translate(4 3)" d="M0 0h33v33H0z"/></clipPath></defs></svg>