<svg width="40" height="44" fill="none" xmlns="http://www.w3.org/2000/svg"><mask id="a" style="mask-type:luminance" maskUnits="userSpaceOnUse" x="3" y="9" width="34" height="35"><path d="M37 9.508H3V43.81h34V9.508Z" fill="#fff"/></mask><g mask="url(#a)" fill="#000"><path d="M10.212 37.059H7.904c-2.565 0-4.646-2.1-4.646-4.688v-4.667c0-2.589 2.081-4.688 4.646-4.688h2.308c1 0 1.803.82 1.803 1.819v10.384c0 1.008-.814 1.82-1.803 1.82v.02ZM7.904 24.585c-1.71 0-3.1 1.403-3.1 3.13v4.666c0 1.726 1.39 3.13 3.1 3.13h2.308a.256.256 0 0 0 .258-.26V24.865a.256.256 0 0 0-.258-.26H7.904v-.02ZM32.095 37.058h-2.308c-.999 0-1.803-.822-1.803-1.82V24.855c0-1.008.814-1.819 1.803-1.819h2.308c2.566 0 4.647 2.1 4.647 4.688v4.667c0 2.589-2.081 4.688-4.647 4.688v-.02Zm-2.308-12.474a.256.256 0 0 0-.257.26v10.384c0 .146.113.26.257.26h2.308c1.71 0 3.102-1.403 3.102-3.129v-4.667c0-1.726-1.391-3.129-3.102-3.129h-2.308v.021Z"/><path d="M30.047 23.879c-.3-3.44-1.484-6.03-3.493-7.692-3.009-2.495-6.944-2.09-6.986-2.09-9.478 0-9.612 9.325-9.612 9.72H8.41c0-.115.124-11.279 11.076-11.279.103-.02 4.513-.478 8.036 2.422 2.36 1.944 3.72 4.896 4.07 8.773l-1.535.136-.01.01ZM21.544 43.295h-4.12c-1.567 0-2.834-1.278-2.834-2.858s1.267-2.859 2.833-2.859h4.121c1.566 0 2.834 1.279 2.834 2.859s-1.268 2.858-2.834 2.858Zm-4.12-4.158c-.712 0-1.289.582-1.289 1.3 0 .717.577 1.299 1.288 1.299h4.121c.711 0 1.288-.582 1.288-1.3 0-.717-.577-1.299-1.288-1.299h-4.12Z"/><path d="M29.375 41.218H23.09v-1.56h6.285c1.226 0 2.215-1.008 2.215-2.234v-1.518h1.545v1.518c0 2.09-1.69 3.794-3.76 3.794Z"/></g></svg>