<svg width="50" height="50" fill="none" xmlns="http://www.w3.org/2000/svg"><g clip-path="url(#clip0_3775_29095)" fill="#05141F"><path d="M25 45.7C13.6 45.7 4.3 36.4 4.3 25 4.3 13.6 13.6 4.3 25 4.3c11.4 0 20.7 9.3 20.7 20.7 0 11.4-9.3 20.7-20.7 20.7zM25 6C14.6 6 6 14.6 6 25s8.6 19 19 19 19-8.6 19-19S35.4 6 25 6z"/><path d="M25 34c-5 0-9-4-9-9 0-3.3 1.8-6.3 4.7-7.9l.9 1.6c-2.3 1.3-3.8 3.7-3.8 6.3 0 4 3.2 7.2 7.2 7.2s7.2-3.2 7.2-7.2c0-2.6-1.4-5-3.7-6.3l.8-1.6c2.9 1.6 4.7 4.6 4.7 7.9 0 5-4 9-9 9z"/><path d="M25.9 14h-1.8V22h1.8V14z"/></g><defs><clipPath id="clip0_3775_29095"><path fill="#fff" d="M0 0h50v50H0z"/></clipPath></defs></svg>