<svg width="50" height="50" fill="none" xmlns="http://www.w3.org/2000/svg"><g clip-path="url(#clip0_3775_29088)" fill="#05141F"><path d="M25 45.7C13.6 45.7 4.3 36.4 4.3 25 4.3 13.6 13.6 4.3 25 4.3c11.4 0 20.7 9.3 20.7 20.7 0 3-.6 5.8-1.8 8.5l-1.6-.7c1.1-2.5 1.7-5.1 1.7-7.8 0-10.4-8.6-19-19-19S6 14.6 6 25s8.6 19 19 19c2.9 0 5.6-.7 8.2-2l.8 1.7c-2.9 1.3-5.9 2-9 2z"/><path d="M38.1 45.7c-4.1 0-7.6-3.4-7.6-7.6 0-4.1 3.5-7.6 7.6-7.6 4.2 0 7.6 3.5 7.6 7.6 0 4.2-3.4 7.6-7.6 7.6zm0-13.4c-3.1 0-5.8 2.7-5.8 5.8 0 3.2 2.7 5.9 5.8 5.9 3.2 0 5.9-2.7 5.9-5.9 0-3.1-2.7-5.8-5.9-5.8z"/><path d="M15.9 33.4h-1.8v-3c0-2.1 1.8-3.9 3.9-3.9h7v1.8h-7c-1.2 0-2.1 1-2.1 2.1v3zm20-1h-1.8v-2c0-1.1-.9-2.1-2.1-2.1h-2v-1.8h2c2.2 0 3.9 1.8 3.9 3.9v2zM25 25.3c-3.2 0-5.9-2.6-5.9-5.9 0-3.2 2.7-5.9 5.9-5.9 3.3 0 5.9 2.7 5.9 5.9 0 3.3-2.6 5.9-5.9 5.9zm0-10c-2.3 0-4.1 1.9-4.1 4.1 0 2.3 1.8 4.1 4.1 4.1s4.1-1.8 4.1-4.1c0-2.2-1.8-4.1-4.1-4.1zM39 34.9h-1.8v6.5H39v-6.5z"/><path d="M41.4 37.2h-6.5V39h6.5v-1.8z"/></g><defs><clipPath id="clip0_3775_29088"><path fill="#fff" d="M0 0h50v50H0z"/></clipPath></defs></svg>