<svg width="50" height="50" fill="none" xmlns="http://www.w3.org/2000/svg"><g clip-path="url(#clip0_3775_29079)" fill="#05141F"><path d="M39.2 25c-5.1 0-9.2-4.2-9.2-9.3 0-5.1 4.1-9.3 9.2-9.3 5.2 0 9.3 4.2 9.3 9.3 0 5.1-4.1 9.3-9.3 9.3zm0-16.8c-4.1 0-7.4 3.4-7.4 7.5s3.3 7.5 7.4 7.5c4.2 0 7.5-3.4 7.5-7.5s-3.3-7.5-7.5-7.5zM37.1 38.8H13.5L6.4 16H1.8v-1.8h6l7 22.8h22.3v1.8z"/><path d="M31.2 17.9H17.7v1.8h13.5v-1.8zM36 32.6H12.4v-1.8h22.4l2-7.1 1.7.4-2.4 8.5zM16 46.3c1.3 0 2.3-1 2.3-2.3 0-1.2-1-2.2-2.3-2.2-1.2 0-2.2 1-2.2 2.2 0 1.3 1 2.3 2.2 2.3zM33.1 46.3c1.3 0 2.3-1 2.3-2.3 0-1.2-1-2.2-2.3-2.2-1.2 0-2.2 1-2.2 2.2 0 1.3 1 2.3 2.2 2.3zM38.4 20l-3.7-3.7L36 15l2.4 2.4 4.6-4.6 1.3 1.2-5.9 6z"/></g><defs><clipPath id="clip0_3775_29079"><path fill="#fff" d="M0 0h50v50H0z"/></clipPath></defs></svg>