<svg width="90" height="22" viewBox="0 0 90 22" fill="none" xmlns="http://www.w3.org/2000/svg">
<path d="M52.2098 19.4908C52.2098 19.6653 52.2616 19.7644 52.3616 19.7644C52.4413 19.7568 52.5172 19.7267 52.5811 19.6776L80.6147 0.747394C81.0845 0.402004 81.6522 0.222711 82.2313 0.236864H88.3944C88.6075 0.226056 88.8205 0.261442 89.0192 0.340687C89.218 0.419931 89.398 0.541232 89.5473 0.696584C89.6967 0.851936 89.8121 1.03781 89.8858 1.24193C89.9595 1.44605 89.9899 1.66378 89.9749 1.88075V14.1146C90.054 14.737 89.945 15.3692 89.6627 15.9269C89.3803 16.4846 88.9379 16.9413 88.3944 17.2363L80.9221 21.9056C80.848 21.9597 80.761 21.9923 80.6702 22C80.5776 22 80.4943 21.9292 80.4943 21.6641V7.38524C80.4943 7.23236 80.4424 7.11157 80.3424 7.11157C80.2647 7.11881 80.1905 7.14753 80.1276 7.19461L59.6348 21.0384C59.1757 21.3718 58.6245 21.5479 58.0608 21.5414H44.4745C44.2614 21.5523 44.0484 21.5171 43.8496 21.4379C43.6508 21.3587 43.4708 21.2374 43.3215 21.082C43.1721 20.9266 43.0569 20.7406 42.9834 20.5364C42.9098 20.3322 42.8797 20.1144 42.8949 19.8975V2.26483C42.8949 2.13649 42.8393 2.0157 42.743 2.0157C42.6632 2.02338 42.5872 2.05379 42.5236 2.10346L29.0058 10.5437C28.8697 10.6268 28.8346 10.6976 28.8346 10.7636C28.8346 10.8297 28.8577 10.8797 28.954 10.9797L38.6069 21.0223C38.7346 21.1545 38.8217 21.2583 38.8217 21.3621C38.8217 21.4829 38.6819 21.5367 38.5143 21.5367H29.7772C29.4946 21.569 29.2085 21.542 28.9366 21.4571C28.6647 21.3722 28.4129 21.2313 28.1966 21.0431L22.3391 14.9526C22.3189 14.9262 22.2936 14.9042 22.2648 14.888C22.236 14.8718 22.2043 14.8617 22.1715 14.8582C22.1068 14.8628 22.0446 14.8856 21.9919 14.9243L12.1983 21.0441C11.7343 21.3711 11.1818 21.5423 10.6177 21.5338H1.60467C1.39158 21.5454 1.17852 21.5106 0.979637 21.4318C0.780752 21.3529 0.600589 21.2319 0.451108 21.0767C0.301627 20.9215 0.186247 20.7357 0.112626 20.5316C0.0390059 20.3274 0.00882927 20.1097 0.0240995 19.8928V7.8835C-0.0532229 7.26232 0.0565284 6.63186 0.338803 6.07571C0.621077 5.51955 1.06254 5.06397 1.60467 4.76936L9.12048 0.0660576C9.18249 0.02535 9.25417 0.0025225 9.32789 0C9.44363 0 9.50382 0.124566 9.50382 0.394458V16.4512C9.50382 16.622 9.54826 16.7003 9.65567 16.7003C9.73726 16.6897 9.81461 16.6571 9.87975 16.6059L35.2818 0.722858C35.7719 0.373798 36.3615 0.19992 36.9587 0.22837H50.6292C50.8424 0.217563 51.0553 0.252949 51.2541 0.332194C51.4528 0.411438 51.6328 0.532739 51.7822 0.688091C51.9316 0.843443 52.0469 1.02931 52.1206 1.23343C52.1943 1.43756 52.2247 1.65529 52.2098 1.87226V19.4908Z" fill="white"/>
</svg>
