<svg preserveAspectRatio="none" width="100%" height="100%" overflow="visible" style="display: block;" viewBox="0 0 100 100" fill="none" xmlns="http://www.w3.org/2000/svg">
<g id="Icon">
<path id="Vector" d="M66.1289 42.5C72.204 42.5 77.1289 37.5751 77.1289 31.5C77.1289 25.4249 72.204 20.5 66.1289 20.5C60.0538 20.5 55.1289 25.4249 55.1289 31.5C55.1289 37.5751 60.0538 42.5 66.1289 42.5Z" stroke="var(--stroke-0, black)" stroke-width="3" stroke-miterlimit="10"/>
<path id="Vector_2" d="M92.1294 35.4944V27.4944C92.1294 26.3944 91.2294 25.4944 90.1294 25.4944H86.6194C85.8094 25.4944 85.0694 25.0144 84.7794 24.2644C84.6694 23.9844 84.5494 23.7144 84.4294 23.4344C84.0994 22.6944 84.2794 21.8244 84.8594 21.2444L87.3494 18.7544C88.1294 17.9744 88.1294 16.7044 87.3494 15.9244L81.6894 10.2644C80.9094 9.48438 79.6394 9.48438 78.8594 10.2644L76.3694 12.7544C75.7994 13.3244 74.9294 13.5144 74.1794 13.1844C73.9094 13.0644 73.6294 12.9444 73.3494 12.8344C72.5994 12.5444 72.1194 11.7944 72.1194 10.9944V7.48438C72.1194 6.38437 71.2194 5.48438 70.1194 5.48438H62.1194C61.0194 5.48438 60.1194 6.38437 60.1194 7.48438V10.9944C60.1194 11.8044 59.6394 12.5444 58.8894 12.8344C58.6094 12.9444 58.3394 13.0644 58.0594 13.1844C57.3194 13.5144 56.4494 13.3344 55.8694 12.7544L53.3794 10.2644C52.5994 9.48438 51.3294 9.48438 50.5494 10.2644L44.8894 15.9244C44.1094 16.7044 44.1094 17.9744 44.8894 18.7544L47.3794 21.2444C47.9494 21.8144 48.1394 22.6844 47.8094 23.4344C47.6894 23.7044 47.5694 23.9844 47.4594 24.2644C47.1694 25.0144 46.4194 25.4944 45.6194 25.4944H42.1094C41.0094 25.4944 40.1094 26.3944 40.1094 27.4944V35.4944C40.1094 36.5944 41.0094 37.4944 42.1094 37.4944H45.6194C46.4294 37.4944 47.1694 37.9744 47.4594 38.7244C47.5694 39.0044 47.6794 39.2744 47.8094 39.5544C48.1394 40.2944 47.9594 41.1644 47.3794 41.7444L44.8894 44.2344C44.1094 45.0144 44.1094 46.2844 44.8894 47.0644L50.5494 52.7244C51.3294 53.5044 52.5994 53.5044 53.3794 52.7244L55.8694 50.2344C56.4394 49.6644 57.3094 49.4744 58.0594 49.8044C58.3294 49.9244 58.6094 50.0444 58.8894 50.1544C59.6394 50.4444 60.1194 51.1944 60.1194 51.9944V55.5044C60.1194 56.6044 61.0194 57.5044 62.1194 57.5044H70.1194C71.2194 57.5044 72.1194 56.6044 72.1194 55.5044V51.9944C72.1194 51.1844 72.5994 50.4444 73.3494 50.1544C73.6294 50.0444 73.9094 49.9244 74.1794 49.8044C74.9194 49.4744 75.7894 49.6544 76.3694 50.2344L78.8594 52.7244C79.6394 53.5044 80.9094 53.5044 81.6894 52.7244L87.3494 47.0644C88.1294 46.2844 88.1294 45.0144 87.3494 44.2344L84.8594 41.7444C84.2894 41.1744 84.0994 40.3044 84.4294 39.5544C84.5494 39.2844 84.6694 39.0044 84.7794 38.7244C85.0694 37.9744 85.8194 37.4944 86.6194 37.4944H90.1294C91.2294 37.4944 92.1294 36.5944 92.1294 35.4944Z" stroke="var(--stroke-0, black)" stroke-width="3" stroke-miterlimit="10"/>
<path id="Vector_3" d="M27.1298 58.5H16.0898C14.9853 58.5 14.0898 59.3954 14.0898 60.5V92.5C14.0898 93.6046 14.9853 94.5 16.0898 94.5H27.1298C28.2344 94.5 29.1298 93.6046 29.1298 92.5V60.5C29.1298 59.3954 28.2344 58.5 27.1298 58.5Z" stroke="var(--stroke-0, black)" stroke-width="3" stroke-miterlimit="10"/>
<path id="Vector_4" d="M14.09 91.5H7.65C6.46 91.5 5.5 90.6 5.5 89.5V63.5C5.5 62.4 6.46 61.5 7.65 61.5H14.09" stroke="var(--stroke-0, black)" stroke-width="3" stroke-miterlimit="10"/>
<path id="Vector_5" d="M29.1289 87.5002L54.0289 90.2702C55.3889 90.4202 56.7589 90.1003 57.9089 89.3703L82.3589 73.8102L91.9189 68.0302C94.1589 66.6802 95.1589 63.8402 94.0289 61.4902C92.7289 58.7902 89.4289 57.8502 86.9289 59.3602L71.1189 68.5002" stroke="var(--stroke-0, black)" stroke-width="3" stroke-miterlimit="10"/>
<path id="Vector_6" d="M29.1289 64.4917L47.0189 60.7217C47.7489 60.5717 48.4989 60.5517 49.2389 60.6717C49.3689 60.6917 49.4989 60.7217 49.6189 60.7617L68.5689 66.5017C71.2089 67.3017 72.7089 70.0917 71.9089 72.7417C71.1089 75.3817 68.3189 76.8817 65.6689 76.0817L50.4889 71.4917" stroke="var(--stroke-0, black)" stroke-width="3" stroke-miterlimit="10" stroke-linecap="round"/>
</g>
</svg>
