<svg width="150" height="15" viewBox="0 0 150 15" fill="none" xmlns="http://www.w3.org/2000/svg">
<g clip-path="url(#clip0_1_523)">
<path d="M73.2784 7.46651C73.2578 6.18442 73.5587 4.91693 74.1548 3.77493C74.722 2.6989 75.5946 1.80582 76.6677 1.20283C77.8504 0.559028 79.1881 0.237584 80.5412 0.272036C81.377 0.272652 82.2071 0.405964 82.9992 0.666773C83.7115 0.882312 84.3811 1.21467 84.9796 1.64967V4.50204C84.461 3.84162 83.8092 3.29262 83.0646 2.88914C82.3191 2.49388 81.4827 2.29168 80.6348 2.30177C79.8157 2.29295 79.0116 2.51643 78.3196 2.94519C77.6092 3.39183 77.0378 4.02075 76.6677 4.76335C76.2477 5.60418 76.0385 6.53083 76.0576 7.46651V7.80204C76.0398 8.73176 76.249 9.65223 76.6677 10.487C77.0401 11.2324 77.6135 11.8641 78.326 12.3139C79.0135 12.7458 79.8146 12.9727 80.6316 12.9668C81.4794 12.9769 82.3159 12.7747 83.0614 12.3794C83.8072 11.9763 84.4601 11.4273 84.9796 10.7665V13.6189C84.381 14.056 83.7108 14.3902 82.9976 14.6073C82.2055 14.8681 81.3753 15.0014 80.5396 15.002C79.1866 15.0348 77.8495 14.7117 76.6677 14.0665C75.5935 13.4637 74.7201 12.5703 74.1523 11.4936C73.5573 10.3516 73.2572 9.08445 73.2784 7.80282V7.46651ZM86.5983 9.46151C86.587 8.53689 86.8199 7.62507 87.2746 6.8144C87.7101 6.03456 88.356 5.38657 89.1419 4.94098C89.9555 4.48223 90.8806 4.24709 91.8195 4.26046C92.7584 4.24709 93.6835 4.48223 94.497 4.94098C95.2829 5.38657 95.9288 6.03456 96.3644 6.8144C96.8191 7.62507 97.052 8.53689 97.0406 9.46151V9.7773C97.0561 10.7114 96.8231 11.6334 96.3644 12.4528C95.9268 13.2289 95.2812 13.8736 94.497 14.3176C93.6835 14.7763 92.7584 15.0115 91.8195 14.9981C90.8806 15.0115 89.9555 14.7763 89.1419 14.3176C88.356 13.872 87.7101 13.224 87.2746 12.4441C86.8181 11.6273 86.5852 10.7089 86.5983 9.77809V9.46151ZM89.1516 9.7773C89.1182 10.635 89.3653 11.4807 89.8569 12.1915C90.0751 12.5001 90.3694 12.7498 90.7124 12.9176C91.0555 13.0854 91.4362 13.1659 91.8195 13.1515C92.2027 13.1662 92.5836 13.086 92.9267 12.9185C93.2699 12.751 93.5644 12.5015 93.7829 12.1931C94.2745 11.4823 94.5216 10.6365 94.4882 9.77888V9.46309C94.52 8.61129 94.2729 7.77181 93.7829 7.06704C93.5646 6.75848 93.2704 6.50874 92.9274 6.34094C92.5843 6.17314 92.2035 6.09269 91.8203 6.10704C91.437 6.09269 91.0563 6.17314 90.7132 6.34094C90.3702 6.50874 90.0759 6.75848 89.8577 7.06704C89.3677 7.77181 89.1206 8.61129 89.1524 9.46309L89.1516 9.7773ZM99.0427 14.7194V4.53993H101.348L101.501 6.01309C101.879 5.5072 102.359 5.08221 102.911 4.76414C103.487 4.42725 104.147 4.25291 104.817 4.26046C105.312 4.23148 105.808 4.30417 106.272 4.47386C106.736 4.64355 107.159 4.90648 107.514 5.24572C108.199 6.02445 108.545 7.0354 108.476 8.06098V14.7194H106.017V8.06335C106.017 6.77072 105.484 6.1244 104.416 6.1244C103.76 6.13721 103.132 6.38657 102.652 6.82467C102.114 7.27002 101.714 7.85467 101.499 8.51177V14.7194H99.0427ZM110.954 14.7194V4.53993H113.259L113.412 6.01309C113.79 5.5072 114.27 5.08221 114.822 4.76414C115.398 4.42725 116.058 4.25291 116.728 4.26046C117.223 4.23159 117.718 4.30434 118.183 4.47403C118.647 4.64371 119.07 4.90658 119.424 5.24572C120.109 6.02445 120.455 7.0354 120.386 8.06098V14.7194H117.928V8.06335C117.928 6.77072 117.395 6.1244 116.327 6.1244C115.672 6.13738 115.044 6.38643 114.565 6.82388C114.026 7.26923 113.627 7.85388 113.412 8.51098V14.7194H110.954ZM122.1 9.4244C122.086 8.50314 122.298 7.59199 122.719 6.76782C123.108 6.00469 123.709 5.36474 124.454 4.92204C125.228 4.47257 126.116 4.24346 127.017 4.26046C127.673 4.22358 128.329 4.33086 128.938 4.57443C129.546 4.818 130.091 5.19168 130.533 5.66809C131.419 6.76448 131.863 8.14098 131.781 9.53651V10.4689H124.518C124.556 11.2162 124.875 11.9235 125.414 12.4544C125.98 12.9414 126.719 13.1924 127.472 13.1539C128.118 13.1589 128.76 13.0384 129.358 12.7994C130.007 12.5194 130.59 12.1136 131.073 11.6065V13.896C130.579 14.2624 130.02 14.5372 129.425 14.7068C128.76 14.9027 128.07 15.0001 127.376 14.9957C126.377 15.0241 125.388 14.796 124.508 14.3341C123.733 13.9125 123.105 13.2727 122.707 12.4978C122.286 11.657 122.077 10.7303 122.096 9.79467L122.1 9.4244ZM129.342 8.64125C129.385 7.95302 129.157 7.27489 128.704 6.74651C128.487 6.51934 128.222 6.34089 127.927 6.22341C127.633 6.10594 127.316 6.05223 126.998 6.06598C126.682 6.06188 126.368 6.12303 126.077 6.24545C125.787 6.36788 125.526 6.54883 125.311 6.77651C124.832 7.28612 124.558 7.94875 124.54 8.64125H129.342ZM133.116 9.44256C133.109 8.53484 133.346 7.64125 133.802 6.85072C134.258 6.0552 134.931 5.39925 135.746 4.95598C136.632 4.47796 137.631 4.23671 138.643 4.25651C139.212 4.25233 139.778 4.33736 140.32 4.50835C140.795 4.65434 141.245 4.87137 141.654 5.15177V7.61414C141.334 7.14997 140.898 6.7744 140.387 6.52388C139.899 6.28485 139.36 6.1605 138.815 6.16072C138.268 6.15739 137.731 6.29929 137.261 6.57125C136.781 6.84878 136.386 7.24809 136.118 7.72704C135.825 8.25262 135.677 8.84397 135.689 9.44256V9.81519C135.683 10.3995 135.834 10.9753 136.127 11.4841C136.402 11.9696 136.803 12.375 137.29 12.6589C137.75 12.932 138.277 13.077 138.815 13.0781C139.365 13.0701 139.907 12.9401 140.398 12.6979C140.89 12.4558 141.32 12.1077 141.654 11.6799V14.0665C141.258 14.361 140.813 14.5878 140.34 14.7376C139.767 14.9198 139.167 15.008 138.564 14.9989C137.574 15.0149 136.598 14.7735 135.734 14.2994C134.925 13.8568 134.255 13.2055 133.798 12.4165C133.341 11.6297 133.104 10.739 133.112 9.83414L133.116 9.44256ZM145.236 6.38572H142.988V4.53993H145.236V1.44519H147.695V4.53993H150V6.38572H147.695V14.7194H145.236V6.38572Z" fill="white"/>
<path d="M62.8972 1.23237C62.906 1.08822 62.8835 0.943893 62.8311 0.808893C62.7787 0.673892 62.6976 0.551286 62.5931 0.449211C62.4887 0.347136 62.3634 0.267909 62.2254 0.216739C62.0873 0.165569 61.9398 0.143616 61.7924 0.152363H57.4831C57.0797 0.143239 56.6839 0.260535 56.3534 0.487109L36.7519 12.9403C36.7079 12.9736 36.6549 12.9936 36.5994 12.9979C36.53 12.9979 36.4945 12.9324 36.4945 12.8187V1.23237C36.5035 1.08826 36.481 0.943942 36.4287 0.808941C36.3764 0.67394 36.2954 0.551348 36.1911 0.449259C36.0867 0.34717 35.9614 0.267916 35.8234 0.216739C35.6854 0.165562 35.5379 0.143604 35.3906 0.152363H25.8295C25.4134 0.132908 25.0021 0.246532 24.6578 0.47605L6.89139 10.9208C6.84563 10.9547 6.79171 10.9764 6.73484 10.9839C6.6614 10.9839 6.63074 10.9326 6.63074 10.8213V0.259745C6.63074 0.0813237 6.58634 0 6.50726 0C6.45608 0.00185005 6.4065 0.0180313 6.36442 0.0465955L1.10698 3.1366C0.7293 3.32592 0.420518 3.62463 0.222801 3.99199C0.0250845 4.35935 -0.0519488 4.77743 0.00221719 5.18921V13.0879C-0.00660393 13.2321 0.0159419 13.3765 0.0683406 13.5115C0.120739 13.6465 0.201813 13.7692 0.306213 13.8713C0.410612 13.9734 0.53596 14.0528 0.673992 14.104C0.812024 14.1553 0.959604 14.1773 1.10698 14.1687H7.41026C7.80386 14.1742 8.18974 14.0615 8.51583 13.8458L15.3646 9.81949C15.402 9.79454 15.4454 9.77955 15.4905 9.77605C15.5135 9.77839 15.5357 9.78518 15.5559 9.79602C15.5762 9.80687 15.594 9.82156 15.6084 9.83922L19.7021 13.8442C19.8549 13.9677 20.0315 14.06 20.2214 14.1156C20.4113 14.1712 20.6107 14.189 20.8077 14.1679H26.9165C27.0319 14.1679 27.1312 14.1316 27.1312 14.0534C27.1312 13.9753 27.069 13.9176 26.9787 13.8284L20.2275 7.22132C20.1613 7.15579 20.1468 7.11869 20.1468 7.07842C20.1468 7.03816 20.1726 6.98527 20.2678 6.93317L29.7191 1.37842C29.7643 1.34574 29.818 1.32631 29.8741 1.32238C29.9402 1.32238 29.9782 1.40133 29.9782 1.48501V13.0824C29.9693 13.2266 29.9919 13.3709 30.0443 13.506C30.0967 13.641 30.1778 13.7636 30.2822 13.8658C30.3866 13.9679 30.5119 14.0472 30.6499 14.0985C30.788 14.1498 30.9356 14.1718 31.0829 14.1632H40.5851C40.9781 14.1676 41.3627 14.0517 41.685 13.8316L56.0145 4.72501C56.0592 4.69325 56.1119 4.67412 56.167 4.66974C56.2372 4.66974 56.2735 4.74869 56.2735 4.85054V14.2453C56.2735 14.4197 56.3308 14.4687 56.3945 14.4687C56.4575 14.4633 56.5178 14.4412 56.5688 14.4047L61.7948 11.3337C62.172 11.1438 62.4803 10.8449 62.6779 10.4777C62.8755 10.1105 62.9529 9.69275 62.8996 9.28106L62.8972 1.23237Z" fill="white"/>
</g>
<defs>
<clipPath id="clip0_1_523">
<rect width="150" height="15" fill="white"/>
</clipPath>
</defs>
</svg>
