<svg preserveAspectRatio="none" width="100%" height="100%" overflow="visible" style="display: block;" viewBox="0 0 222 16" fill="none" xmlns="http://www.w3.org/2000/svg">
<g id="logo">
<path id="Path 14846" d="M40.609 14.1739C40.609 14.3005 40.6498 14.3729 40.7272 14.3729C40.7892 14.3673 40.8484 14.3454 40.8981 14.3096L62.7005 0.543304C63.0659 0.292351 63.5074 0.16214 63.9576 0.172522H68.751C68.9168 0.164663 69.0824 0.190386 69.237 0.247992C69.3915 0.305598 69.5315 0.393779 69.6477 0.506717C69.7638 0.619655 69.8536 0.754782 69.9109 0.903185C69.9683 1.05159 69.992 1.20989 69.9804 1.36765V10.2643C70.0421 10.717 69.9574 11.1769 69.7378 11.5826C69.5181 11.9883 69.1739 12.3205 68.751 12.535L62.9392 15.9304C62.8818 15.9701 62.8142 15.9941 62.7436 16C62.6706 16 62.6071 15.9485 62.6071 15.7551V5.37043C62.6071 5.25913 62.5662 5.17148 62.4888 5.17148C62.4283 5.17678 62.3705 5.1977 62.3216 5.232L46.3828 15.2995C46.026 15.5415 45.5979 15.6693 45.16 15.6647H34.592C34.4262 15.6729 34.2603 15.6474 34.1056 15.5899C33.9508 15.5324 33.8107 15.4443 33.6943 15.3313C33.578 15.2183 33.4883 15.083 33.431 14.9345C33.3736 14.7859 33.3501 14.6274 33.3619 14.4696V1.64522C33.3619 1.5513 33.3188 1.46365 33.2437 1.46365C33.1816 1.46907 33.1224 1.49101 33.0728 1.52696L22.5603 7.66678C22.4545 7.7273 22.4267 7.77878 22.4267 7.82678C22.4267 7.87478 22.445 7.91165 22.5202 7.984L30.03 15.2883C30.1293 15.385 30.1972 15.4602 30.1972 15.5353C30.1972 15.623 30.0884 15.6619 29.9585 15.6619H23.1612C22.9414 15.6858 22.7187 15.6664 22.5071 15.6049C22.2955 15.5433 22.0995 15.4411 21.9311 15.3043L17.3764 10.8758C17.3607 10.8565 17.3412 10.8404 17.3188 10.8284C17.2965 10.8165 17.2719 10.8089 17.2464 10.8063C17.1962 10.8096 17.1479 10.8262 17.107 10.8543L9.48836 15.3043C9.12749 15.5422 8.6977 15.6667 8.25899 15.6605H1.25067C1.08489 15.6695 0.919001 15.6448 0.764065 15.5879C0.60913 15.5309 0.468707 15.4432 0.352161 15.3305C0.235616 15.2178 0.145626 15.0827 0.0881938 14.9343C0.0307614 14.7858 0.00720601 14.6274 0.0190987 14.4696V5.73287C-0.0416763 5.28074 0.0433859 4.82168 0.26298 4.41672C0.482574 4.01176 0.8263 3.68007 1.24847 3.46574L7.09458 0.048C7.14282 0.0184059 7.19858 0.00181835 7.25592 0C7.34644 0 7.39244 0.0904348 7.39244 0.286609V11.9652C7.39244 12.089 7.42675 12.1468 7.5107 12.1468C7.57401 12.1385 7.63392 12.1145 7.68445 12.0772L27.4413 0.525217C27.8226 0.27151 28.2814 0.145286 28.7459 0.166261H39.3789C39.5447 0.158301 39.7104 0.183948 39.865 0.241509C40.0197 0.299069 40.1597 0.387235 40.276 0.500184C40.3923 0.613133 40.482 0.748296 40.5394 0.896749C40.5968 1.0452 40.6205 1.20357 40.609 1.36139V14.1739Z" fill="var(--fill-0, #05141F)"/>
<path id="Vector" d="M82 7.72C82 6.25333 82.3067 4.93333 82.92 3.76C83.5333 2.58667 84.4133 1.66667 85.56 1C86.7067 0.333331 88.06 0 89.62 0C90.5 0 91.36 0.14 92.2 0.420001C93.04 0.700001 93.7333 1.05333 94.28 1.48V4.54C93.7067 3.80667 93.0333 3.23333 92.26 2.82C91.5 2.39333 90.6533 2.18 89.72 2.18C88.8267 2.18 88.0133 2.41333 87.28 2.88C86.56 3.33333 85.9867 3.98 85.56 4.82C85.1333 5.66 84.92 6.62667 84.92 7.72V8.08C84.92 9.16 85.1333 10.12 85.56 10.96C85.9867 11.8 86.5667 12.4533 87.3 12.92C88.0333 13.3867 88.84 13.62 89.72 13.62C90.6533 13.62 91.5 13.4133 92.26 13C93.0333 12.5733 93.7067 11.9933 94.28 11.26V14.32C93.7333 14.7467 93.04 15.1 92.2 15.38C91.36 15.66 90.5 15.8 89.62 15.8C88.06 15.8 86.7067 15.4667 85.56 14.8C84.4133 14.1333 83.5333 13.2133 82.92 12.04C82.3067 10.8667 82 9.5467 82 8.08V7.72ZM96.1773 9.86C96.1773 8.82 96.4107 7.87333 96.8773 7.02C97.3573 6.16667 98.0107 5.5 98.8373 5.02C99.6773 4.52667 100.617 4.28 101.657 4.28C102.697 4.28 103.631 4.52667 104.457 5.02C105.297 5.5 105.951 6.16667 106.417 7.02C106.897 7.87333 107.137 8.82 107.137 9.86V10.2C107.137 11.2667 106.897 12.2267 106.417 13.08C105.951 13.92 105.297 14.5867 104.457 15.08C103.631 15.56 102.697 15.8 101.657 15.8C100.617 15.8 99.6773 15.56 98.8373 15.08C98.0107 14.5867 97.3573 13.9133 96.8773 13.06C96.4107 12.2067 96.1773 11.2533 96.1773 10.2V9.86ZM98.8573 10.2C98.8573 11.24 99.104 12.1067 99.5973 12.8C100.091 13.48 100.777 13.82 101.657 13.82C102.537 13.82 103.224 13.48 103.717 12.8C104.211 12.1067 104.457 11.24 104.457 10.2V9.86C104.457 8.83333 104.211 7.98 103.717 7.3C103.224 6.60667 102.537 6.26 101.657 6.26C100.777 6.26 100.091 6.60667 99.5973 7.3C99.104 7.98 98.8573 8.83333 98.8573 9.86V10.2ZM109.436 15.5V4.58H111.856L112.016 6.16C112.403 5.62667 112.896 5.18 113.496 4.82C114.096 4.46 114.763 4.28 115.496 4.28C116.709 4.28 117.649 4.63333 118.316 5.34C118.996 6.04667 119.336 7.05333 119.336 8.36V15.5H116.756V8.36C116.756 6.97333 116.196 6.28 115.076 6.28C114.423 6.28 113.803 6.53333 113.216 7.04C112.643 7.53333 112.243 8.13333 112.016 8.84V15.5H109.436ZM122.131 15.5V4.58H124.551L124.711 6.16C125.098 5.62667 125.591 5.18 126.191 4.82C126.791 4.46 127.458 4.28 128.191 4.28C129.405 4.28 130.345 4.63333 131.011 5.34C131.691 6.04667 132.031 7.05333 132.031 8.36V15.5H129.451V8.36C129.451 6.97333 128.891 6.28 127.771 6.28C127.118 6.28 126.498 6.53333 125.911 7.04C125.338 7.53333 124.938 8.13333 124.711 8.84V15.5H122.131ZM134.027 9.82C134.027 8.76667 134.24 7.82 134.667 6.98C135.107 6.12667 135.713 5.46667 136.487 5C137.273 4.52 138.173 4.28 139.187 4.28C140.773 4.28 142 4.78667 142.867 5.8C143.747 6.8 144.187 8.18 144.187 9.94V10.94H136.567C136.66 11.86 136.973 12.5733 137.507 13.08C138.04 13.5733 138.76 13.82 139.667 13.82C140.373 13.82 141.033 13.6933 141.647 13.44C142.26 13.1867 142.86 12.76 143.447 12.16V14.62C142.967 14.9933 142.387 15.28 141.707 15.48C141.04 15.6933 140.327 15.8 139.567 15.8C138.393 15.8 137.387 15.5667 136.547 15.1C135.72 14.62 135.093 13.96 134.667 13.12C134.24 12.28 134.027 11.3133 134.027 10.22V9.82ZM141.627 8.98C141.627 8.11333 141.4 7.44 140.947 6.96C140.507 6.46667 139.913 6.22 139.167 6.22C138.473 6.22 137.88 6.47333 137.387 6.98C136.907 7.48667 136.64 8.15333 136.587 8.98H141.627ZM145.787 9.84C145.787 8.84 146.027 7.91333 146.507 7.06C146.987 6.20667 147.667 5.53333 148.547 5.04C149.427 4.53333 150.44 4.28 151.587 4.28C152.213 4.28 152.8 4.37333 153.347 4.56C153.893 4.73333 154.36 4.96 154.747 5.24V7.88C154.387 7.36 153.94 6.97333 153.407 6.72C152.887 6.45333 152.34 6.32 151.767 6.32C151.18 6.32 150.633 6.46667 150.127 6.76C149.633 7.05333 149.233 7.46667 148.927 8C148.633 8.53333 148.487 9.14667 148.487 9.84V10.24C148.487 10.8933 148.64 11.4933 148.947 12.04C149.253 12.5733 149.66 12.9933 150.167 13.3C150.673 13.5933 151.207 13.74 151.767 13.74C152.9 13.74 153.893 13.24 154.747 12.24V14.8C154.373 15.0933 153.913 15.3333 153.367 15.52C152.82 15.7067 152.2 15.8 151.507 15.8C150.4 15.8 149.407 15.5533 148.527 15.06C147.66 14.5533 146.987 13.88 146.507 13.04C146.027 12.1867 145.787 11.26 145.787 10.26V9.84ZM158.701 6.56H156.341V4.58H158.701V1.26H161.281V4.58H163.701V6.56H161.281V15.5H158.701V6.56ZM170.916 11.02C171.409 11.7667 172.062 12.3867 172.876 12.88C173.702 13.36 174.549 13.6 175.416 13.6C176.256 13.6 176.902 13.4 177.356 13C177.822 12.5867 178.056 12.0867 178.056 11.5C178.056 11.0733 177.896 10.6933 177.576 10.36C177.269 10.0267 176.729 9.6533 175.956 9.24L173.736 8.06C172.789 7.55333 172.082 7.00667 171.616 6.42C171.162 5.82 170.936 5.03333 170.936 4.06C170.936 3.35333 171.116 2.69333 171.476 2.08C171.836 1.45333 172.389 0.953331 173.136 0.580001C173.882 0.193334 174.796 0 175.876 0C177.449 0 178.909 0.506671 180.256 1.52V4.54C179.629 3.74 178.942 3.14667 178.196 2.76C177.449 2.36 176.676 2.16 175.876 2.16C175.236 2.16 174.729 2.33333 174.356 2.68C173.982 3.01333 173.796 3.42 173.796 3.9C173.796 4.28667 173.916 4.62667 174.156 4.92C174.396 5.21333 174.842 5.52667 175.496 5.86L177.856 7.08C178.896 7.62667 179.662 8.24 180.156 8.92C180.662 9.5867 180.916 10.4267 180.916 11.44C180.916 12.32 180.689 13.0867 180.236 13.74C179.782 14.3933 179.136 14.9 178.296 15.26C177.469 15.62 176.509 15.8 175.416 15.8C174.442 15.8 173.549 15.6267 172.736 15.28C171.922 14.9467 171.316 14.5733 170.916 14.16V11.02ZM184.483 6.56H182.123V4.58H184.483V1.26H187.063V4.58H189.483V6.56H187.063V15.5H184.483V6.56ZM190.474 9.86C190.474 8.82 190.708 7.87333 191.174 7.02C191.654 6.16667 192.308 5.5 193.134 5.02C193.974 4.52667 194.914 4.28 195.954 4.28C196.994 4.28 197.928 4.52667 198.754 5.02C199.594 5.5 200.248 6.16667 200.714 7.02C201.194 7.87333 201.434 8.82 201.434 9.86V10.2C201.434 11.2667 201.194 12.2267 200.714 13.08C200.248 13.92 199.594 14.5867 198.754 15.08C197.928 15.56 196.994 15.8 195.954 15.8C194.914 15.8 193.974 15.56 193.134 15.08C192.308 14.5867 191.654 13.9133 191.174 13.06C190.708 12.2067 190.474 11.2533 190.474 10.2V9.86ZM193.154 10.2C193.154 11.24 193.401 12.1067 193.894 12.8C194.388 13.48 195.074 13.82 195.954 13.82C196.834 13.82 197.521 13.48 198.014 12.8C198.508 12.1067 198.754 11.24 198.754 10.2V9.86C198.754 8.83333 198.508 7.98 198.014 7.3C197.521 6.60667 196.834 6.26 195.954 6.26C195.074 6.26 194.388 6.60667 193.894 7.3C193.401 7.98 193.154 8.83333 193.154 9.86V10.2ZM203.733 15.5V4.58H206.153L206.273 6.38C206.499 5.74 206.906 5.23333 207.493 4.86C208.093 4.47333 208.779 4.28 209.553 4.28C209.899 4.28 210.186 4.31333 210.413 4.38V6.68C210.119 6.57333 209.799 6.52 209.453 6.52C208.719 6.52 208.059 6.74 207.473 7.18C206.886 7.60667 206.499 8.18 206.313 8.9V15.5H203.733ZM211.409 9.82C211.409 8.76667 211.623 7.82 212.049 6.98C212.489 6.12667 213.096 5.46667 213.869 5C214.656 4.52 215.556 4.28 216.569 4.28C218.156 4.28 219.383 4.78667 220.249 5.8C221.129 6.8 221.569 8.18 221.569 9.94V10.94H213.949C214.043 11.86 214.356 12.5733 214.889 13.08C215.423 13.5733 216.143 13.82 217.049 13.82C217.756 13.82 218.416 13.6933 219.029 13.44C219.643 13.1867 220.243 12.76 220.829 12.16V14.62C220.349 14.9933 219.769 15.28 219.089 15.48C218.423 15.6933 217.709 15.8 216.949 15.8C215.776 15.8 214.769 15.5667 213.929 15.1C213.103 14.62 212.476 13.96 212.049 13.12C211.623 12.28 211.409 11.3133 211.409 10.22V9.82ZM219.009 8.98C219.009 8.11333 218.783 7.44 218.329 6.96C217.889 6.46667 217.296 6.22 216.549 6.22C215.856 6.22 215.263 6.47333 214.769 6.98C214.289 7.48667 214.023 8.15333 213.969 8.98H219.009Z" fill="var(--fill-0, #05141F)"/>
</g>
</svg>
